<svg xmlns="http://www.w3.org/2000/svg" viewBox="0 140 1400 380" font-family="'Segoe UI',Arial,sans-serif" preserveAspectRatio="xMidYMid slice">
  <rect width="1400" height="520" fill="#0f172a"/>

  <!-- Project boxes -->
  <!-- Box 1: Rohas Group -->
  <rect x="60" y="164" width="290" height="310" rx="12" fill="#1e293b"/>
  <rect x="60" y="164" width="290" height="6" rx="12" fill="#0D9488"/>
  <rect x="316" y="172" width="24" height="24" rx="6" fill="#0D9488" opacity=".15"/>
  <text x="322" y="188" fill="#0D9488" font-size="13">🔒</text>
  <text x="84" y="202" fill="#0D9488" font-size="10" font-weight="700" letter-spacing="1.5">ROHAS GROUP</text>
  <text x="84" y="228" fill="#f1f5f9" font-size="20" font-weight="700">92 Properties</text>
  <text x="84" y="250" fill="#64748b" font-size="11">rohas.amaradata.com</text>
  <rect x="84" y="264" width="242" height="1" fill="#334155"/>

  <text x="84" y="292" fill="#94a3b8" font-size="10" font-weight="700">SALES (May)</text>
  <text x="84" y="316" fill="#f1f5f9" font-size="22" font-weight="700">$2.8M</text>
  <text x="84" y="340" fill="#94a3b8" font-size="10" font-weight="700">RENTAL INCOME</text>
  <text x="84" y="364" fill="#f1f5f9" font-size="22" font-weight="700">$680K</text>
  <text x="84" y="388" fill="#94a3b8" font-size="10" font-weight="700">PLAN</text>
  <text x="84" y="412" fill="#f1f5f9" font-size="14">Standard</text>
  <rect x="84" y="426" width="60" height="20" rx="10" fill="#10b981" opacity=".15"/>
  <text x="98" y="440" fill="#10b981" font-size="11" font-weight="600">Active</text>
  <text x="84" y="462" fill="#475569" font-size="10">Isolated DB · 18 tables</text>

  <!-- Box 2: Sai Builders -->
  <rect x="375" y="164" width="290" height="310" rx="12" fill="#1e293b"/>
  <rect x="375" y="164" width="290" height="6" rx="12" fill="#8b5cf6"/>
  <rect x="631" y="172" width="24" height="24" rx="6" fill="#8b5cf6" opacity=".15"/>
  <text x="637" y="188" fill="#8b5cf6" font-size="13">🔒</text>
  <text x="399" y="202" fill="#8b5cf6" font-size="10" font-weight="700" letter-spacing="1.5">SAI BUILDERS</text>
  <text x="399" y="228" fill="#f1f5f9" font-size="20" font-weight="700">76 Properties</text>
  <text x="399" y="250" fill="#64748b" font-size="11">sai.amaradata.com</text>
  <rect x="399" y="264" width="242" height="1" fill="#334155"/>

  <text x="399" y="292" fill="#94a3b8" font-size="10" font-weight="700">SALES (May)</text>
  <text x="399" y="316" fill="#f1f5f9" font-size="22" font-weight="700">$2.1M</text>
  <text x="399" y="340" fill="#94a3b8" font-size="10" font-weight="700">RENTAL INCOME</text>
  <text x="399" y="364" fill="#f1f5f9" font-size="22" font-weight="700">$520K</text>
  <text x="399" y="388" fill="#94a3b8" font-size="10" font-weight="700">PLAN</text>
  <text x="399" y="412" fill="#f1f5f9" font-size="14">Premium</text>
  <rect x="399" y="426" width="66" height="20" rx="10" fill="#ef4444" opacity=".15"/>
  <text x="413" y="440" fill="#ef4444" font-size="11" font-weight="600">Overdue</text>
  <text x="399" y="462" fill="#475569" font-size="10">Isolated DB · 18 tables</text>

  <!-- Box 3: MK Estates -->
  <rect x="690" y="164" width="290" height="310" rx="12" fill="#1e293b"/>
  <rect x="690" y="164" width="290" height="6" rx="12" fill="#f59e0b"/>
  <rect x="946" y="172" width="24" height="24" rx="6" fill="#f59e0b" opacity=".15"/>
  <text x="952" y="188" fill="#f59e0b" font-size="13">🔒</text>
  <text x="714" y="202" fill="#f59e0b" font-size="10" font-weight="700" letter-spacing="1.5">MK ESTATES</text>
  <text x="714" y="228" fill="#f1f5f9" font-size="20" font-weight="700">44 Properties</text>
  <text x="714" y="250" fill="#64748b" font-size="11">mkestates.amaradata.com</text>
  <rect x="714" y="264" width="242" height="1" fill="#334155"/>

  <text x="714" y="292" fill="#94a3b8" font-size="10" font-weight="700">SALES (May)</text>
  <text x="714" y="316" fill="#f1f5f9" font-size="22" font-weight="700">$1.4M</text>
  <text x="714" y="340" fill="#94a3b8" font-size="10" font-weight="700">RENTAL INCOME</text>
  <text x="714" y="364" fill="#f1f5f9" font-size="22" font-weight="700">$340K</text>
  <text x="714" y="388" fill="#94a3b8" font-size="10" font-weight="700">PLAN</text>
  <text x="714" y="412" fill="#f1f5f9" font-size="14">Standard</text>
  <rect x="714" y="426" width="46" height="20" rx="10" fill="#10b981" opacity=".15"/>
  <text x="728" y="440" fill="#10b981" font-size="11" font-weight="600">Active</text>
  <text x="714" y="462" fill="#475569" font-size="10">Isolated DB · 18 tables</text>

  <!-- Box 4: Platform totals -->
  <rect x="1005" y="164" width="335" height="310" rx="12" fill="#1e293b"/>
  <rect x="1005" y="164" width="335" height="6" rx="12" fill="#10b981"/>
  <text x="1029" y="202" fill="#10b981" font-size="10" font-weight="700" letter-spacing="1.5">PLATFORM SUMMARY · 18 TENANTS</text>
  <rect x="1029" y="214" width="287" height="1" fill="#334155"/>

  <text x="1029" y="248" fill="#64748b" font-size="10" font-weight="700" letter-spacing="1.5">TOTAL PROPERTIES</text>
  <text x="1029" y="282" fill="#f1f5f9" font-size="38" font-weight="800">312</text>
  <text x="1029" y="306" fill="#10b981" font-size="12">↑ 24 added this month</text>

  <rect x="1029" y="322" width="287" height="1" fill="#334155"/>

  <text x="1029" y="352" fill="#64748b" font-size="10" font-weight="700" letter-spacing="1.5">PLATFORM MRR</text>
  <text x="1029" y="386" fill="#f1f5f9" font-size="34" font-weight="800">$1.24M</text>
  <text x="1029" y="408" fill="#0D9488" font-size="12">↑ 8.2% vs last month</text>

  <rect x="1029" y="422" width="287" height="1" fill="#334155"/>

  <text x="1029" y="445" fill="#64748b" font-size="11">Each tenant on isolated PostgreSQL</text>
  <text x="1029" y="464" fill="#64748b" font-size="11">instance · zero cross-contamination</text>
</svg>
