<svg xmlns="http://www.w3.org/2000/svg" viewBox="0 140 1400 380" font-family="'Segoe UI',Arial,sans-serif" preserveAspectRatio="xMidYMid slice">
  <rect width="1400" height="520" fill="#0f172a"/>

  <!-- Pipeline columns -->
  <!-- Column 1: New Leads -->
  <rect x="60" y="164" width="272" height="310" rx="10" fill="#1e293b"/>
  <rect x="60" y="164" width="272" height="6" rx="10" fill="#0D9488"/>
  <text x="86" y="196" fill="#0D9488" font-size="11" font-weight="700" letter-spacing="1">NEW LEADS</text>
  <rect x="284" y="182" width="28" height="18" rx="9" fill="#0D9488" opacity=".2"/>
  <text x="291" y="195" fill="#0D9488" font-size="10" font-weight="700">8</text>

  <rect x="80" y="208" width="232" height="62" rx="8" fill="#0f172a"/>
  <text x="100" y="230" fill="#e2e8f0" font-size="12" font-weight="600">James Wilson</text>
  <text x="100" y="248" fill="#64748b" font-size="11">3 Bed · Riverside · $850K</text>
  <text x="100" y="264" fill="#475569" font-size="10">Source: Website · 2d ago</text>

  <rect x="80" y="280" width="232" height="62" rx="8" fill="#0f172a"/>
  <text x="100" y="302" fill="#e2e8f0" font-size="12" font-weight="600">Sarah Chen</text>
  <text x="100" y="320" fill="#64748b" font-size="11">2 Bed · Westside · $620K</text>
  <text x="100" y="336" fill="#475569" font-size="10">Source: Referral · 1d ago</text>

  <rect x="80" y="352" width="232" height="62" rx="8" fill="#0f172a"/>
  <text x="100" y="374" fill="#e2e8f0" font-size="12" font-weight="600">Carlos Rivera</text>
  <text x="100" y="392" fill="#64748b" font-size="11">Villa · Hillcrest · $2.1M</text>
  <text x="100" y="408" fill="#475569" font-size="10">Source: Google Ads · 4h ago</text>

  <text x="86" y="455" fill="#475569" font-size="11">+5 more leads</text>

  <!-- Arrow -->
  <path d="M 350 310 L 390 310" stroke="#334155" stroke-width="2" marker-end="url(#arr)"/>
  <defs>
    <marker id="arr" markerWidth="8" markerHeight="8" refX="6" refY="3" orient="auto">
      <path d="M0,0 L0,6 L8,3 z" fill="#334155"/>
    </marker>
  </defs>

  <!-- Column 2: Qualified -->
  <rect x="400" y="164" width="272" height="310" rx="10" fill="#1e293b"/>
  <rect x="400" y="164" width="272" height="6" rx="10" fill="#0D9488"/>
  <text x="426" y="196" fill="#0D9488" font-size="11" font-weight="700" letter-spacing="1">QUALIFIED</text>
  <rect x="624" y="182" width="28" height="18" rx="9" fill="#0D9488" opacity=".2"/>
  <text x="631" y="195" fill="#0D9488" font-size="10" font-weight="700">5</text>

  <rect x="420" y="208" width="232" height="72" rx="8" fill="#0f172a"/>
  <text x="440" y="232" fill="#e2e8f0" font-size="12" font-weight="600">Emma Thompson</text>
  <text x="440" y="250" fill="#64748b" font-size="11">4 Bed · Northpark · $1.4M</text>
  <rect x="440" y="260" width="56" height="16" rx="8" fill="#10b981" opacity=".15"/>
  <text x="452" y="272" fill="#10b981" font-size="10">Site Visit ✓</text>
  <text x="440" y="274" fill="#475569" font-size="10" dx="70">Budget confirmed</text>

  <rect x="420" y="290" width="232" height="72" rx="8" fill="#0f172a"/>
  <text x="440" y="314" fill="#e2e8f0" font-size="12" font-weight="600">David Park</text>
  <text x="440" y="332" fill="#64748b" font-size="11">3 Bed · Tech District · $980K</text>
  <rect x="440" y="342" width="56" height="16" rx="8" fill="#10b981" opacity=".15"/>
  <text x="452" y="354" fill="#10b981" font-size="10">Loan Approved</text>

  <rect x="420" y="372" width="232" height="62" rx="8" fill="#0f172a"/>
  <text x="440" y="394" fill="#e2e8f0" font-size="12" font-weight="600">Lisa Rodriguez</text>
  <text x="440" y="412" fill="#64748b" font-size="11">2 Bed · Midtown · $720K</text>
  <text x="440" y="428" fill="#475569" font-size="10">Negotiation in progress</text>

  <!-- Arrow -->
  <path d="M 690 310 L 730 310" stroke="#334155" stroke-width="2" marker-end="url(#arr)"/>

  <!-- Column 3: Closing -->
  <rect x="740" y="164" width="272" height="310" rx="10" fill="#1e293b"/>
  <rect x="740" y="164" width="272" height="6" rx="10" fill="#f59e0b"/>
  <text x="766" y="196" fill="#f59e0b" font-size="11" font-weight="700" letter-spacing="1">CLOSING</text>
  <rect x="964" y="182" width="28" height="18" rx="9" fill="#f59e0b" opacity=".2"/>
  <text x="971" y="195" fill="#f59e0b" font-size="10" font-weight="700">3</text>

  <rect x="760" y="208" width="232" height="80" rx="8" fill="#0f172a"/>
  <text x="780" y="232" fill="#e2e8f0" font-size="12" font-weight="600">Apex Corp (Corp)</text>
  <text x="780" y="250" fill="#64748b" font-size="11">10 units · Lakeside · $9.2M</text>
  <rect x="780" y="260" width="62" height="16" rx="8" fill="#f59e0b" opacity=".15"/>
  <text x="792" y="272" fill="#f59e0b" font-size="10">Docs Review</text>
  <text x="780" y="282" fill="#475569" font-size="10">Agreement draft sent · 2h ago</text>

  <rect x="760" y="298" width="232" height="72" rx="8" fill="#0f172a"/>
  <text x="780" y="322" fill="#e2e8f0" font-size="12" font-weight="600">Michael Torres</text>
  <text x="780" y="340" fill="#64748b" font-size="11">Penthouse · Hillcrest · $3.8M</text>
  <rect x="780" y="350" width="74" height="16" rx="8" fill="#f59e0b" opacity=".15"/>
  <text x="790" y="362" fill="#f59e0b" font-size="10">Payment Pending</text>

  <!-- Arrow -->
  <path d="M 1030 310 L 1070 310" stroke="#334155" stroke-width="2" marker-end="url(#arr)"/>

  <!-- Column 4: Won -->
  <rect x="1080" y="164" width="280" height="310" rx="10" fill="#1e293b"/>
  <rect x="1080" y="164" width="280" height="6" rx="10" fill="#10b981"/>
  <text x="1106" y="196" fill="#10b981" font-size="11" font-weight="700" letter-spacing="1">WON · MAY 2026</text>
  <rect x="1316" y="182" width="28" height="18" rx="9" fill="#10b981" opacity=".2"/>
  <text x="1323" y="195" fill="#10b981" font-size="10" font-weight="700">6</text>

  <text x="1106" y="240" fill="#64748b" font-size="10" font-weight="700" letter-spacing="1.5">TOTAL CLOSED VALUE</text>
  <text x="1106" y="278" fill="#f1f5f9" font-size="34" font-weight="800">$8.4M</text>
  <text x="1106" y="300" fill="#10b981" font-size="12">↑ 22% vs April</text>

  <rect x="1106" y="318" width="228" height="1" fill="#334155"/>

  <text x="1106" y="346" fill="#64748b" font-size="10" font-weight="700" letter-spacing="1.5">AVG. CYCLE TIME</text>
  <text x="1106" y="376" fill="#f1f5f9" font-size="28" font-weight="700">18 days</text>
  <text x="1106" y="396" fill="#0D9488" font-size="11">Industry avg: 32 days</text>

  <rect x="1106" y="412" width="228" height="1" fill="#334155"/>

  <text x="1106" y="440" fill="#64748b" font-size="10" font-weight="700" letter-spacing="1.5">CONVERSION RATE</text>
  <text x="1106" y="460" fill="#f1f5f9" font-size="26" font-weight="700">42%<tspan fill="#10b981" font-size="12" dx="6">↑ 8pp</tspan></text>
</svg>
