<svg xmlns="http://www.w3.org/2000/svg" viewBox="0 0 1400 520" font-family="'Segoe UI',Arial,sans-serif" preserveAspectRatio="xMidYMid slice">
  <rect width="1400" height="520" fill="#0f172a"/>
  <!-- Subtle grid lines -->
  <line x1="0" y1="130" x2="1400" y2="130" stroke="#1e293b" stroke-width="1"/>
  <line x1="0" y1="260" x2="1400" y2="260" stroke="#1e293b" stroke-width="1"/>
  <line x1="0" y1="390" x2="1400" y2="390" stroke="#1e293b" stroke-width="1"/>

  <!-- Left panel — key metrics -->
  <rect x="60" y="60" width="320" height="400" rx="14" fill="#1e293b"/>
  <text x="96" y="110" fill="#0D9488" font-size="11" font-weight="700" letter-spacing="2">PRECISION ANALYTICS</text>
  <text x="96" y="148" fill="#f1f5f9" font-size="28" font-weight="800" xml:space="preserve">Property Valuations</text>

  <rect x="96" y="172" width="248" height="1" fill="#334155"/>

  <text x="96" y="210" fill="#64748b" font-size="10" font-weight="700" letter-spacing="1.5">AVG. ACCURACY</text>
  <text x="96" y="244" fill="#10b981" font-size="40" font-weight="800">98.4%</text>
  <text x="96" y="268" fill="#475569" font-size="12">vs 89.1% industry avg</text>

  <rect x="96" y="290" width="248" height="1" fill="#334155"/>

  <text x="96" y="322" fill="#64748b" font-size="10" font-weight="700" letter-spacing="1.5">MARKET TRENDS</text>
  <text x="96" y="356" fill="#f1f5f9" font-size="36" font-weight="800">$8,240</text>
  <text x="96" y="380" fill="#0D9488" font-size="12">↑ 6.2% MoM · per sq ft</text>

  <rect x="96" y="402" width="248" height="1" fill="#334155"/>
  <text x="96" y="432" fill="#64748b" font-size="10" font-weight="700" letter-spacing="1.5">PROPERTIES ANALYSED</text>
  <text x="96" y="456" fill="#f1f5f9" font-size="28" font-weight="700">312</text>

  <!-- Bar chart -->
  <rect x="450" y="60" width="560" height="400" rx="14" fill="#1e293b"/>
  <text x="490" y="105" fill="#f1f5f9" font-size="15" font-weight="600">Monthly Valuation Index ($ Thousands / unit)</text>

  <!-- Y-axis labels -->
  <text x="458" y="160" fill="#475569" font-size="10">120</text>
  <text x="458" y="215" fill="#475569" font-size="10">100</text>
  <text x="458" y="270" fill="#475569" font-size="10">80</text>
  <text x="458" y="325" fill="#475569" font-size="10">60</text>
  <text x="458" y="380" fill="#475569" font-size="10">40</text>

  <!-- Grid lines (chart area) -->
  <line x1="490" y1="155" x2="980" y2="155" stroke="#334155" stroke-width="1"/>
  <line x1="490" y1="210" x2="980" y2="210" stroke="#334155" stroke-width="1"/>
  <line x1="490" y1="265" x2="980" y2="265" stroke="#334155" stroke-width="1"/>
  <line x1="490" y1="320" x2="980" y2="320" stroke="#334155" stroke-width="1"/>
  <line x1="490" y1="375" x2="980" y2="375" stroke="#334155" stroke-width="1"/>

  <!-- Bars (Nov–May, growing) -->
  <defs>
    <linearGradient id="bar" x1="0" y1="0" x2="0" y2="1">
      <stop offset="0%" stop-color="#0D9488"/>
      <stop offset="100%" stop-color="#0D9488"/>
    </linearGradient>
  </defs>
  <rect x="510" y="325" width="42" height="50" rx="4" fill="#0D9488" opacity=".4"/>
  <rect x="576" y="305" width="42" height="70" rx="4" fill="#0D9488" opacity=".5"/>
  <rect x="642" y="278" width="42" height="97" rx="4" fill="#0D9488" opacity=".6"/>
  <rect x="708" y="255" width="42" height="120" rx="4" fill="#0D9488" opacity=".72"/>
  <rect x="774" y="230" width="42" height="145" rx="4" fill="#0D9488" opacity=".85"/>
  <rect x="840" y="205" width="42" height="170" rx="4" fill="#0D9488"/>
  <rect x="906" y="179" width="42" height="196" rx="4" fill="url(#bar)"/>

  <!-- Bar labels (value) -->
  <text x="531" y="320" fill="#64748b" font-size="9" text-anchor="middle">62</text>
  <text x="597" y="300" fill="#64748b" font-size="9" text-anchor="middle">71</text>
  <text x="663" y="273" fill="#64748b" font-size="9" text-anchor="middle">82</text>
  <text x="729" y="250" fill="#64748b" font-size="9" text-anchor="middle">91</text>
  <text x="795" y="225" fill="#94a3b8" font-size="9" text-anchor="middle">99</text>
  <text x="861" y="200" fill="#94a3b8" font-size="9" text-anchor="middle">108</text>
  <text x="927" y="174" fill="#f1f5f9" font-size="9" text-anchor="middle">118</text>

  <!-- X-axis labels -->
  <text x="531" y="400" fill="#475569" font-size="10" text-anchor="middle">Nov</text>
  <text x="597" y="400" fill="#475569" font-size="10" text-anchor="middle">Dec</text>
  <text x="663" y="400" fill="#475569" font-size="10" text-anchor="middle">Jan</text>
  <text x="729" y="400" fill="#475569" font-size="10" text-anchor="middle">Feb</text>
  <text x="795" y="400" fill="#475569" font-size="10" text-anchor="middle">Mar</text>
  <text x="861" y="400" fill="#475569" font-size="10" text-anchor="middle">Apr</text>
  <text x="927" y="400" fill="#f1f5f9" font-size="10" text-anchor="middle" font-weight="600">May</text>

  <!-- Trend line overlay -->
  <polyline points="531,325 597,305 663,278 729,255 795,230 861,205 927,179"
            fill="none" stroke="#0D9488" stroke-width="2" stroke-dasharray="6 3" opacity="0.7"/>

  <!-- Right panel — heatmap / distribution -->
  <rect x="1080" y="60" width="280" height="400" rx="14" fill="#1e293b"/>
  <text x="1116" y="105" fill="#f1f5f9" font-size="13" font-weight="600">Price Distribution</text>
  <text x="1116" y="126" fill="#64748b" font-size="10">Platform Market · May 2026</text>
  <rect x="1116" y="138" width="208" height="1" fill="#334155"/>

  <!-- Distribution rows -->
  <text x="1116" y="164" fill="#94a3b8" font-size="11">Budget</text>
  <rect x="1200" y="152" width="100" height="14" rx="3" fill="#334155"/>
  <rect x="1200" y="152" width="28" height="14" rx="3" fill="#0D9488" opacity=".5"/>
  <text x="1310" y="164" fill="#64748b" font-size="10">18%</text>

  <text x="1116" y="198" fill="#94a3b8" font-size="11">Mid-Range</text>
  <rect x="1200" y="186" width="100" height="14" rx="3" fill="#334155"/>
  <rect x="1200" y="186" width="54" height="14" rx="3" fill="#0D9488" opacity=".65"/>
  <text x="1310" y="198" fill="#64748b" font-size="10">34%</text>

  <text x="1116" y="232" fill="#94a3b8" font-size="11">Premium</text>
  <rect x="1200" y="220" width="100" height="14" rx="3" fill="#334155"/>
  <rect x="1200" y="220" width="72" height="14" rx="3" fill="#0D9488" opacity=".8"/>
  <text x="1310" y="232" fill="#f1f5f9" font-size="10" font-weight="600">45%</text>

  <text x="1116" y="266" fill="#94a3b8" font-size="11">Luxury</text>
  <rect x="1200" y="254" width="100" height="14" rx="3" fill="#334155"/>
  <rect x="1200" y="254" width="38" height="14" rx="3" fill="#0D9488" opacity=".7"/>
  <text x="1310" y="266" fill="#64748b" font-size="10">24%</text>

  <text x="1116" y="300" fill="#94a3b8" font-size="11">Ultra-Lux</text>
  <rect x="1200" y="288" width="100" height="14" rx="3" fill="#334155"/>
  <rect x="1200" y="288" width="18" height="14" rx="3" fill="#0D9488" opacity=".45"/>
  <text x="1310" y="300" fill="#64748b" font-size="10">11%</text>

  <rect x="1116" y="318" width="208" height="1" fill="#334155"/>
  <text x="1116" y="348" fill="#64748b" font-size="10" font-weight="700" letter-spacing="1">AI CONFIDENCE SCORE</text>
  <text x="1116" y="384" fill="#10b981" font-size="38" font-weight="800">A+</text>
  <text x="1166" y="384" fill="#475569" font-size="13">  · 98.4%</text>
  <text x="1116" y="408" fill="#475569" font-size="11">Model trained on 2.1M data points</text>
  <text x="1116" y="428" fill="#475569" font-size="11">across 14 local micro-markets</text>
</svg>
