<svg xmlns="http://www.w3.org/2000/svg" viewBox="-100 0 1600 600" font-family="'Segoe UI',Arial,sans-serif">
  <!-- Background -->
  <rect width="1400" height="600" fill="#0f172a"/>

  <!-- Sidebar -->
  <rect width="220" height="600" fill="#1e293b"/>
  <text x="24" y="38" fill="#0D9488" font-size="18" font-weight="700" letter-spacing="1">AmaraData</text>
  <text x="24" y="54" fill="#475569" font-size="10">Platform Console</text>
  <!-- Sidebar nav items -->
  <rect x="0" y="68" width="220" height="1" fill="#334155"/>
  <rect x="0" y="80" width="4" height="36" fill="#0D9488"/>
  <rect x="8" y="88" width="16" height="16" rx="3" fill="#0D9488"/>
  <text x="32" y="100" fill="#e2e8f0" font-size="13" font-weight="600">Dashboard</text>
  <rect x="8" y="132" width="16" height="16" rx="3" fill="#334155"/>
  <text x="32" y="144" fill="#64748b" font-size="13">Tenants</text>
  <rect x="8" y="164" width="16" height="16" rx="3" fill="#334155"/>
  <text x="32" y="176" fill="#64748b" font-size="13">Invoices</text>
  <rect x="8" y="196" width="16" height="16" rx="3" fill="#334155"/>
  <text x="32" y="208" fill="#64748b" font-size="13">Enhancements</text>
  <rect x="8" y="228" width="16" height="16" rx="3" fill="#334155"/>
  <text x="32" y="240" fill="#64748b" font-size="13">Billing Metrics</text>

  <!-- Top bar -->
  <rect x="220" y="0" width="1180" height="56" fill="#1e293b"/>
  <text x="248" y="34" fill="#f1f5f9" font-size="18" font-weight="700">Dashboard Overview</text>
  <rect x="1300" y="12" width="80" height="32" rx="6" fill="#0D9488"/>
  <text x="1315" y="32" fill="#fff" font-size="12" font-weight="600">+ New</text>

  <!-- KPI Cards -->
  <!-- Card 1: Tenants -->
  <rect x="248" y="76" width="250" height="110" rx="10" fill="#1e293b"/>
  <text x="268" y="104" fill="#94a3b8" font-size="11" font-weight="600" letter-spacing="1">ACTIVE TENANTS</text>
  <text x="268" y="148" fill="#f1f5f9" font-size="38" font-weight="700">18</text>
  <text x="268" y="170" fill="#10b981" font-size="12">↑ 3 this quarter</text>

  <!-- Card 2: Revenue -->
  <rect x="518" y="76" width="250" height="110" rx="10" fill="#1e293b"/>
  <text x="538" y="104" fill="#94a3b8" font-size="11" font-weight="600" letter-spacing="1">MONTHLY REVENUE</text>
  <text x="538" y="148" fill="#f1f5f9" font-size="38" font-weight="700">$1.24M</text>
  <text x="538" y="170" fill="#10b981" font-size="12">↑ 8.2% vs last month</text>

  <!-- Card 3: Invoices -->
  <rect x="788" y="76" width="250" height="110" rx="10" fill="#1e293b"/>
  <text x="808" y="104" fill="#94a3b8" font-size="11" font-weight="600" letter-spacing="1">OPEN INVOICES</text>
  <text x="808" y="148" fill="#f1f5f9" font-size="38" font-weight="700">7</text>
  <text x="808" y="170" fill="#f59e0b" font-size="12">3 overdue</text>

  <!-- Card 4: Collection Rate -->
  <rect x="1058" y="76" width="250" height="110" rx="10" fill="#1e293b"/>
  <text x="1078" y="104" fill="#94a3b8" font-size="11" font-weight="600" letter-spacing="1">COLLECTION RATE</text>
  <text x="1078" y="148" fill="#f1f5f9" font-size="38" font-weight="700">94%</text>
  <text x="1078" y="170" fill="#10b981" font-size="12">↑ 2% from last month</text>

  <!-- Monthly Revenue Chart -->
  <rect x="248" y="206" width="630" height="350" rx="10" fill="#1e293b"/>
  <text x="272" y="234" fill="#f1f5f9" font-size="14" font-weight="600">Monthly Billing ($ Thousands)</text>

  <!-- Chart bars -->
  <rect x="290" y="460" width="60" height="100" rx="4" fill="#0D9488" opacity=".4"/>
  <rect x="375" y="430" width="60" height="130" rx="4" fill="#0D9488" opacity=".5"/>
  <rect x="460" y="390" width="60" height="170" rx="4" fill="#0D9488" opacity=".6"/>
  <rect x="545" y="360" width="60" height="200" rx="4" fill="#0D9488" opacity=".7"/>
  <rect x="630" y="330" width="60" height="230" rx="4" fill="#0D9488" opacity=".85"/>
  <rect x="715" y="300" width="60" height="260" rx="4" fill="#0D9488"/>

  <!-- Bar labels -->
  <text x="308" y="478" fill="#64748b" font-size="11" text-anchor="middle">Nov</text>
  <text x="393" y="448" fill="#64748b" font-size="11" text-anchor="middle">Dec</text>
  <text x="478" y="408" fill="#64748b" font-size="11" text-anchor="middle">Jan</text>
  <text x="563" y="378" fill="#64748b" font-size="11" text-anchor="middle">Feb</text>
  <text x="648" y="348" fill="#64748b" font-size="11" text-anchor="middle">Mar</text>
  <text x="733" y="318" fill="#64748b" font-size="11" text-anchor="middle">Apr</text>

  <!-- Value labels on top of bars -->
  <text x="320" y="455" fill="#94a3b8" font-size="10" text-anchor="middle">7.1</text>
  <text x="405" y="425" fill="#94a3b8" font-size="10" text-anchor="middle">8.4</text>
  <text x="490" y="385" fill="#94a3b8" font-size="10" text-anchor="middle">9.6</text>
  <text x="575" y="355" fill="#94a3b8" font-size="10" text-anchor="middle">10.8</text>
  <text x="660" y="325" fill="#94a3b8" font-size="10" text-anchor="middle">11.3</text>
  <text x="745" y="295" fill="#f1f5f9" font-size="10" text-anchor="middle">12.4</text>

  <!-- Recent invoices panel -->
  <rect x="898" y="206" width="440" height="350" rx="10" fill="#1e293b"/>
  <text x="918" y="234" fill="#f1f5f9" font-size="14" font-weight="600">Recent Invoices</text>
  <!-- Row header -->
  <text x="918" y="264" fill="#475569" font-size="11" font-weight="600">TENANT</text>
  <text x="1148" y="264" fill="#475569" font-size="11" font-weight="600">AMOUNT</text>
  <text x="1268" y="264" fill="#475569" font-size="11" font-weight="600">STATUS</text>
  <rect x="918" y="270" width="400" height="1" fill="#334155"/>
  <!-- Rows -->
  <text x="918" y="294" fill="#e2e8f0" font-size="13">Apex Corp</text>
  <text x="1148" y="294" fill="#e2e8f0" font-size="13">$184,240</text>
  <rect x="1268" y="280" width="50" height="20" rx="10" fill="#10b981" opacity=".2"/>
  <text x="1280" y="294" fill="#10b981" font-size="11">paid</text>

  <text x="918" y="326" fill="#e2e8f0" font-size="13">Lakeside Group</text>
  <text x="1148" y="326" fill="#e2e8f0" font-size="13">$92,600</text>
  <rect x="1268" y="312" width="50" height="20" rx="10" fill="#3b82f6" opacity=".2"/>
  <text x="1280" y="326" fill="#3b82f6" font-size="11">sent</text>

  <text x="918" y="358" fill="#e2e8f0" font-size="13">Apex Builders</text>
  <text x="1148" y="358" fill="#e2e8f0" font-size="13">$214,800</text>
  <rect x="1268" y="344" width="60" height="20" rx="10" fill="#ef4444" opacity=".2"/>
  <text x="1275" y="358" fill="#ef4444" font-size="11">overdue</text>

  <text x="918" y="390" fill="#e2e8f0" font-size="13">GreenAcres</text>
  <text x="1148" y="390" fill="#e2e8f0" font-size="13">$68,400</text>
  <rect x="1268" y="376" width="50" height="20" rx="10" fill="#94a3b8" opacity=".2"/>
  <text x="1277" y="390" fill="#94a3b8" font-size="11">draft</text>

  <text x="918" y="422" fill="#e2e8f0" font-size="13">MK Estates</text>
  <text x="1148" y="422" fill="#e2e8f0" font-size="13">$110,520</text>
  <rect x="1268" y="408" width="50" height="20" rx="10" fill="#10b981" opacity=".2"/>
  <text x="1280" y="422" fill="#10b981" font-size="11">paid</text>
</svg>
